<mxfile host="Electron" modified="2024-09-29T19:09:20.460Z" agent="Mozilla/5.0 (Windows NT 10.0; Win64; x64) AppleWebKit/537.36 (KHTML, like Gecko) draw.io/22.1.16 Chrome/120.0.6099.109 Electron/28.1.0 Safari/537.36" etag="vASmRnf5k5Vjgakvx1Ng" version="22.1.16" type="device">
  <diagram name="Page-1" id="UOvuBwQHvJrXgZ9ntxSo">
    <mxGraphModel dx="1098" dy="940" grid="1" gridSize="10" guides="1" tooltips="1" connect="1" arrows="1" fold="1" page="1" pageScale="1" pageWidth="700" pageHeight="290" math="0" shadow="0">
      <root>
        <mxCell id="0" />
        <mxCell id="1" parent="0" />
        <mxCell id="-KU_KeEN-nzoHM00rjck-72" value="" style="endArrow=none;html=1;rounded=0;entryX=0.5;entryY=1;entryDx=0;entryDy=0;strokeColor=#97D077;" edge="1" parent="1" target="-KU_KeEN-nzoHM00rjck-38">
          <mxGeometry width="50" height="50" relative="1" as="geometry">
            <mxPoint x="210" y="265" as="sourcePoint" />
            <mxPoint x="390" y="135" as="targetPoint" />
            <Array as="points">
              <mxPoint x="300" y="265" />
            </Array>
          </mxGeometry>
        </mxCell>
        <mxCell id="-KU_KeEN-nzoHM00rjck-71" value="" style="endArrow=none;html=1;rounded=0;entryX=0.5;entryY=1;entryDx=0;entryDy=0;strokeColor=#7EA6E0;" edge="1" parent="1" target="-KU_KeEN-nzoHM00rjck-47">
          <mxGeometry width="50" height="50" relative="1" as="geometry">
            <mxPoint x="210" y="205" as="sourcePoint" />
            <mxPoint x="480" y="265" as="targetPoint" />
            <Array as="points">
              <mxPoint x="300" y="205" />
              <mxPoint x="452" y="54" />
              <mxPoint x="453" y="244" />
              <mxPoint x="481" y="269" />
            </Array>
          </mxGeometry>
        </mxCell>
        <mxCell id="-KU_KeEN-nzoHM00rjck-70" value="" style="endArrow=none;html=1;rounded=0;entryX=0.5;entryY=1;entryDx=0;entryDy=0;strokeColor=#FFB570;" edge="1" parent="1" target="-KU_KeEN-nzoHM00rjck-44">
          <mxGeometry width="50" height="50" relative="1" as="geometry">
            <mxPoint x="210" y="146" as="sourcePoint" />
            <mxPoint x="400" y="255" as="targetPoint" />
            <Array as="points">
              <mxPoint x="300" y="145" />
              <mxPoint x="394" y="51" />
              <mxPoint x="395" y="240" />
              <mxPoint x="420" y="265" />
            </Array>
          </mxGeometry>
        </mxCell>
        <mxCell id="-KU_KeEN-nzoHM00rjck-69" value="" style="endArrow=none;html=1;rounded=0;entryX=0.5;entryY=1;entryDx=0;entryDy=0;strokeColor=#EA6B66;" edge="1" parent="1" target="-KU_KeEN-nzoHM00rjck-41">
          <mxGeometry width="50" height="50" relative="1" as="geometry">
            <mxPoint x="210" y="86" as="sourcePoint" />
            <mxPoint x="340" y="305" as="targetPoint" />
            <Array as="points">
              <mxPoint x="300" y="85" />
              <mxPoint x="340" y="45" />
              <mxPoint x="340" y="255" />
              <mxPoint x="360" y="265" />
            </Array>
          </mxGeometry>
        </mxCell>
        <mxCell id="-KU_KeEN-nzoHM00rjck-2" value="" style="endArrow=none;html=1;rounded=0;" edge="1" parent="1">
          <mxGeometry width="50" height="50" relative="1" as="geometry">
            <mxPoint x="290" y="46" as="sourcePoint" />
            <mxPoint x="340" y="96" as="targetPoint" />
          </mxGeometry>
        </mxCell>
        <mxCell id="-KU_KeEN-nzoHM00rjck-1" value="" style="triangle;whiteSpace=wrap;html=1;rotation=45;" vertex="1" parent="1">
          <mxGeometry x="300" y="56" width="30" height="30" as="geometry" />
        </mxCell>
        <mxCell id="-KU_KeEN-nzoHM00rjck-3" value="" style="ellipse;whiteSpace=wrap;html=1;aspect=fixed;fillColor=#000000;" vertex="1" parent="1">
          <mxGeometry x="287" y="43" width="5" height="5" as="geometry" />
        </mxCell>
        <mxCell id="-KU_KeEN-nzoHM00rjck-4" value="" style="endArrow=none;html=1;rounded=0;" edge="1" parent="1">
          <mxGeometry width="50" height="50" relative="1" as="geometry">
            <mxPoint x="290" y="106" as="sourcePoint" />
            <mxPoint x="340" y="156" as="targetPoint" />
          </mxGeometry>
        </mxCell>
        <mxCell id="-KU_KeEN-nzoHM00rjck-5" value="" style="triangle;whiteSpace=wrap;html=1;rotation=45;" vertex="1" parent="1">
          <mxGeometry x="300" y="116" width="30" height="30" as="geometry" />
        </mxCell>
        <mxCell id="-KU_KeEN-nzoHM00rjck-6" value="" style="ellipse;whiteSpace=wrap;html=1;aspect=fixed;fillColor=#000000;" vertex="1" parent="1">
          <mxGeometry x="287" y="103" width="5" height="5" as="geometry" />
        </mxCell>
        <mxCell id="-KU_KeEN-nzoHM00rjck-7" value="" style="endArrow=none;html=1;rounded=0;" edge="1" parent="1">
          <mxGeometry width="50" height="50" relative="1" as="geometry">
            <mxPoint x="291" y="166" as="sourcePoint" />
            <mxPoint x="341" y="216" as="targetPoint" />
          </mxGeometry>
        </mxCell>
        <mxCell id="-KU_KeEN-nzoHM00rjck-8" value="" style="triangle;whiteSpace=wrap;html=1;rotation=45;" vertex="1" parent="1">
          <mxGeometry x="301" y="176" width="30" height="30" as="geometry" />
        </mxCell>
        <mxCell id="-KU_KeEN-nzoHM00rjck-9" value="" style="ellipse;whiteSpace=wrap;html=1;aspect=fixed;fillColor=#000000;" vertex="1" parent="1">
          <mxGeometry x="287" y="162" width="5" height="5" as="geometry" />
        </mxCell>
        <mxCell id="-KU_KeEN-nzoHM00rjck-10" value="" style="endArrow=none;html=1;rounded=0;" edge="1" parent="1">
          <mxGeometry width="50" height="50" relative="1" as="geometry">
            <mxPoint x="290" y="225" as="sourcePoint" />
            <mxPoint x="341" y="276" as="targetPoint" />
          </mxGeometry>
        </mxCell>
        <mxCell id="-KU_KeEN-nzoHM00rjck-11" value="" style="triangle;whiteSpace=wrap;html=1;rotation=45;" vertex="1" parent="1">
          <mxGeometry x="301" y="236" width="30" height="30" as="geometry" />
        </mxCell>
        <mxCell id="-KU_KeEN-nzoHM00rjck-13" value="" style="endArrow=none;html=1;rounded=0;" edge="1" parent="1">
          <mxGeometry width="50" height="50" relative="1" as="geometry">
            <mxPoint x="351" y="46" as="sourcePoint" />
            <mxPoint x="401" y="96" as="targetPoint" />
          </mxGeometry>
        </mxCell>
        <mxCell id="-KU_KeEN-nzoHM00rjck-14" value="" style="triangle;whiteSpace=wrap;html=1;rotation=45;" vertex="1" parent="1">
          <mxGeometry x="361" y="56" width="30" height="30" as="geometry" />
        </mxCell>
        <mxCell id="-KU_KeEN-nzoHM00rjck-15" value="" style="ellipse;whiteSpace=wrap;html=1;aspect=fixed;fillColor=#000000;" vertex="1" parent="1">
          <mxGeometry x="348" y="43" width="5" height="5" as="geometry" />
        </mxCell>
        <mxCell id="-KU_KeEN-nzoHM00rjck-16" value="" style="endArrow=none;html=1;rounded=0;" edge="1" parent="1">
          <mxGeometry width="50" height="50" relative="1" as="geometry">
            <mxPoint x="351" y="106" as="sourcePoint" />
            <mxPoint x="401" y="156" as="targetPoint" />
          </mxGeometry>
        </mxCell>
        <mxCell id="-KU_KeEN-nzoHM00rjck-17" value="" style="triangle;whiteSpace=wrap;html=1;rotation=45;" vertex="1" parent="1">
          <mxGeometry x="361" y="116" width="30" height="30" as="geometry" />
        </mxCell>
        <mxCell id="-KU_KeEN-nzoHM00rjck-18" value="" style="ellipse;whiteSpace=wrap;html=1;aspect=fixed;fillColor=#000000;" vertex="1" parent="1">
          <mxGeometry x="348" y="103" width="5" height="5" as="geometry" />
        </mxCell>
        <mxCell id="-KU_KeEN-nzoHM00rjck-19" value="" style="endArrow=none;html=1;rounded=0;" edge="1" parent="1">
          <mxGeometry width="50" height="50" relative="1" as="geometry">
            <mxPoint x="352" y="166" as="sourcePoint" />
            <mxPoint x="402" y="216" as="targetPoint" />
          </mxGeometry>
        </mxCell>
        <mxCell id="-KU_KeEN-nzoHM00rjck-20" value="" style="triangle;whiteSpace=wrap;html=1;rotation=45;" vertex="1" parent="1">
          <mxGeometry x="362" y="176" width="30" height="30" as="geometry" />
        </mxCell>
        <mxCell id="-KU_KeEN-nzoHM00rjck-21" value="" style="ellipse;whiteSpace=wrap;html=1;aspect=fixed;fillColor=#000000;" vertex="1" parent="1">
          <mxGeometry x="349" y="163" width="5" height="5" as="geometry" />
        </mxCell>
        <mxCell id="-KU_KeEN-nzoHM00rjck-22" value="" style="endArrow=none;html=1;rounded=0;" edge="1" parent="1">
          <mxGeometry width="50" height="50" relative="1" as="geometry">
            <mxPoint x="352" y="226" as="sourcePoint" />
            <mxPoint x="402" y="276" as="targetPoint" />
          </mxGeometry>
        </mxCell>
        <mxCell id="-KU_KeEN-nzoHM00rjck-23" value="" style="triangle;whiteSpace=wrap;html=1;rotation=45;" vertex="1" parent="1">
          <mxGeometry x="362" y="236" width="30" height="30" as="geometry" />
        </mxCell>
        <mxCell id="-KU_KeEN-nzoHM00rjck-24" value="" style="ellipse;whiteSpace=wrap;html=1;aspect=fixed;fillColor=#000000;" vertex="1" parent="1">
          <mxGeometry x="349" y="223" width="5" height="5" as="geometry" />
        </mxCell>
        <mxCell id="-KU_KeEN-nzoHM00rjck-25" value="" style="endArrow=none;html=1;rounded=0;" edge="1" parent="1">
          <mxGeometry width="50" height="50" relative="1" as="geometry">
            <mxPoint x="411" y="46" as="sourcePoint" />
            <mxPoint x="461" y="96" as="targetPoint" />
          </mxGeometry>
        </mxCell>
        <mxCell id="-KU_KeEN-nzoHM00rjck-26" value="" style="triangle;whiteSpace=wrap;html=1;rotation=45;" vertex="1" parent="1">
          <mxGeometry x="421" y="56" width="30" height="30" as="geometry" />
        </mxCell>
        <mxCell id="-KU_KeEN-nzoHM00rjck-27" value="" style="ellipse;whiteSpace=wrap;html=1;aspect=fixed;fillColor=#000000;" vertex="1" parent="1">
          <mxGeometry x="408" y="43" width="5" height="5" as="geometry" />
        </mxCell>
        <mxCell id="-KU_KeEN-nzoHM00rjck-28" value="" style="endArrow=none;html=1;rounded=0;" edge="1" parent="1">
          <mxGeometry width="50" height="50" relative="1" as="geometry">
            <mxPoint x="411" y="106" as="sourcePoint" />
            <mxPoint x="461" y="156" as="targetPoint" />
          </mxGeometry>
        </mxCell>
        <mxCell id="-KU_KeEN-nzoHM00rjck-29" value="" style="triangle;whiteSpace=wrap;html=1;rotation=45;" vertex="1" parent="1">
          <mxGeometry x="421" y="116" width="30" height="30" as="geometry" />
        </mxCell>
        <mxCell id="-KU_KeEN-nzoHM00rjck-30" value="" style="ellipse;whiteSpace=wrap;html=1;aspect=fixed;fillColor=#000000;" vertex="1" parent="1">
          <mxGeometry x="408" y="103" width="5" height="5" as="geometry" />
        </mxCell>
        <mxCell id="-KU_KeEN-nzoHM00rjck-31" value="" style="endArrow=none;html=1;rounded=0;" edge="1" parent="1">
          <mxGeometry width="50" height="50" relative="1" as="geometry">
            <mxPoint x="412" y="166" as="sourcePoint" />
            <mxPoint x="462" y="216" as="targetPoint" />
          </mxGeometry>
        </mxCell>
        <mxCell id="-KU_KeEN-nzoHM00rjck-32" value="" style="triangle;whiteSpace=wrap;html=1;rotation=45;" vertex="1" parent="1">
          <mxGeometry x="422" y="176" width="30" height="30" as="geometry" />
        </mxCell>
        <mxCell id="-KU_KeEN-nzoHM00rjck-33" value="" style="ellipse;whiteSpace=wrap;html=1;aspect=fixed;fillColor=#000000;" vertex="1" parent="1">
          <mxGeometry x="409" y="163" width="5" height="5" as="geometry" />
        </mxCell>
        <mxCell id="-KU_KeEN-nzoHM00rjck-34" value="" style="endArrow=none;html=1;rounded=0;" edge="1" parent="1">
          <mxGeometry width="50" height="50" relative="1" as="geometry">
            <mxPoint x="412" y="226" as="sourcePoint" />
            <mxPoint x="462" y="276" as="targetPoint" />
          </mxGeometry>
        </mxCell>
        <mxCell id="-KU_KeEN-nzoHM00rjck-35" value="" style="triangle;whiteSpace=wrap;html=1;rotation=45;" vertex="1" parent="1">
          <mxGeometry x="422" y="236" width="30" height="30" as="geometry" />
        </mxCell>
        <mxCell id="-KU_KeEN-nzoHM00rjck-36" value="" style="ellipse;whiteSpace=wrap;html=1;aspect=fixed;fillColor=#000000;" vertex="1" parent="1">
          <mxGeometry x="409" y="223" width="5" height="5" as="geometry" />
        </mxCell>
        <mxCell id="-KU_KeEN-nzoHM00rjck-37" value="" style="endArrow=none;html=1;rounded=0;" edge="1" parent="1">
          <mxGeometry width="50" height="50" relative="1" as="geometry">
            <mxPoint x="472" y="46" as="sourcePoint" />
            <mxPoint x="522" y="96" as="targetPoint" />
          </mxGeometry>
        </mxCell>
        <mxCell id="-KU_KeEN-nzoHM00rjck-38" value="" style="triangle;whiteSpace=wrap;html=1;rotation=45;" vertex="1" parent="1">
          <mxGeometry x="482" y="56" width="30" height="30" as="geometry" />
        </mxCell>
        <mxCell id="-KU_KeEN-nzoHM00rjck-39" value="" style="ellipse;whiteSpace=wrap;html=1;aspect=fixed;fillColor=#000000;" vertex="1" parent="1">
          <mxGeometry x="469" y="43" width="5" height="5" as="geometry" />
        </mxCell>
        <mxCell id="-KU_KeEN-nzoHM00rjck-40" value="" style="endArrow=none;html=1;rounded=0;" edge="1" parent="1">
          <mxGeometry width="50" height="50" relative="1" as="geometry">
            <mxPoint x="472" y="106" as="sourcePoint" />
            <mxPoint x="522" y="156" as="targetPoint" />
          </mxGeometry>
        </mxCell>
        <mxCell id="-KU_KeEN-nzoHM00rjck-41" value="" style="triangle;whiteSpace=wrap;html=1;rotation=45;" vertex="1" parent="1">
          <mxGeometry x="482" y="116" width="30" height="30" as="geometry" />
        </mxCell>
        <mxCell id="-KU_KeEN-nzoHM00rjck-42" value="" style="ellipse;whiteSpace=wrap;html=1;aspect=fixed;fillColor=#000000;" vertex="1" parent="1">
          <mxGeometry x="469" y="103" width="5" height="5" as="geometry" />
        </mxCell>
        <mxCell id="-KU_KeEN-nzoHM00rjck-43" value="" style="endArrow=none;html=1;rounded=0;" edge="1" parent="1">
          <mxGeometry width="50" height="50" relative="1" as="geometry">
            <mxPoint x="473" y="166" as="sourcePoint" />
            <mxPoint x="523" y="216" as="targetPoint" />
          </mxGeometry>
        </mxCell>
        <mxCell id="-KU_KeEN-nzoHM00rjck-44" value="" style="triangle;whiteSpace=wrap;html=1;rotation=45;" vertex="1" parent="1">
          <mxGeometry x="483" y="176" width="30" height="30" as="geometry" />
        </mxCell>
        <mxCell id="-KU_KeEN-nzoHM00rjck-45" value="" style="ellipse;whiteSpace=wrap;html=1;aspect=fixed;fillColor=#000000;" vertex="1" parent="1">
          <mxGeometry x="470" y="163" width="5" height="5" as="geometry" />
        </mxCell>
        <mxCell id="-KU_KeEN-nzoHM00rjck-46" value="" style="endArrow=none;html=1;rounded=0;" edge="1" parent="1">
          <mxGeometry width="50" height="50" relative="1" as="geometry">
            <mxPoint x="473" y="226" as="sourcePoint" />
            <mxPoint x="523" y="276" as="targetPoint" />
          </mxGeometry>
        </mxCell>
        <mxCell id="-KU_KeEN-nzoHM00rjck-47" value="" style="triangle;whiteSpace=wrap;html=1;rotation=45;" vertex="1" parent="1">
          <mxGeometry x="483" y="236" width="30" height="30" as="geometry" />
        </mxCell>
        <mxCell id="-KU_KeEN-nzoHM00rjck-48" value="" style="ellipse;whiteSpace=wrap;html=1;aspect=fixed;fillColor=#000000;" vertex="1" parent="1">
          <mxGeometry x="470" y="223" width="5" height="5" as="geometry" />
        </mxCell>
        <mxCell id="-KU_KeEN-nzoHM00rjck-49" value="" style="endArrow=none;html=1;rounded=0;" edge="1" parent="1">
          <mxGeometry width="50" height="50" relative="1" as="geometry">
            <mxPoint x="340" y="96" as="sourcePoint" />
            <mxPoint x="560" y="96" as="targetPoint" />
          </mxGeometry>
        </mxCell>
        <mxCell id="-KU_KeEN-nzoHM00rjck-50" value="" style="endArrow=none;html=1;rounded=0;" edge="1" parent="1">
          <mxGeometry width="50" height="50" relative="1" as="geometry">
            <mxPoint x="340" y="156" as="sourcePoint" />
            <mxPoint x="560" y="156" as="targetPoint" />
          </mxGeometry>
        </mxCell>
        <mxCell id="-KU_KeEN-nzoHM00rjck-51" value="" style="endArrow=none;html=1;rounded=0;" edge="1" parent="1">
          <mxGeometry width="50" height="50" relative="1" as="geometry">
            <mxPoint x="341" y="216" as="sourcePoint" />
            <mxPoint x="561" y="216" as="targetPoint" />
          </mxGeometry>
        </mxCell>
        <mxCell id="-KU_KeEN-nzoHM00rjck-52" value="" style="endArrow=none;html=1;rounded=0;" edge="1" parent="1">
          <mxGeometry width="50" height="50" relative="1" as="geometry">
            <mxPoint x="341" y="276" as="sourcePoint" />
            <mxPoint x="561" y="276" as="targetPoint" />
          </mxGeometry>
        </mxCell>
        <mxCell id="-KU_KeEN-nzoHM00rjck-53" value="" style="endArrow=none;html=1;rounded=0;" edge="1" parent="1">
          <mxGeometry width="50" height="50" relative="1" as="geometry">
            <mxPoint x="290" y="225" as="sourcePoint" />
            <mxPoint x="290" y="25" as="targetPoint" />
          </mxGeometry>
        </mxCell>
        <mxCell id="-KU_KeEN-nzoHM00rjck-54" value="" style="endArrow=none;html=1;rounded=0;" edge="1" parent="1">
          <mxGeometry width="50" height="50" relative="1" as="geometry">
            <mxPoint x="351.26" y="223" as="sourcePoint" />
            <mxPoint x="350" y="25" as="targetPoint" />
          </mxGeometry>
        </mxCell>
        <mxCell id="-KU_KeEN-nzoHM00rjck-55" value="" style="endArrow=none;html=1;rounded=0;" edge="1" parent="1">
          <mxGeometry width="50" height="50" relative="1" as="geometry">
            <mxPoint x="410.26" y="226" as="sourcePoint" />
            <mxPoint x="410" y="25" as="targetPoint" />
          </mxGeometry>
        </mxCell>
        <mxCell id="-KU_KeEN-nzoHM00rjck-56" value="" style="endArrow=none;html=1;rounded=0;exitX=0;exitY=0.5;exitDx=0;exitDy=0;" edge="1" parent="1">
          <mxGeometry width="50" height="50" relative="1" as="geometry">
            <mxPoint x="472" y="225.5" as="sourcePoint" />
            <mxPoint x="472" y="25" as="targetPoint" />
          </mxGeometry>
        </mxCell>
        <mxCell id="-KU_KeEN-nzoHM00rjck-57" value="" style="ellipse;whiteSpace=wrap;html=1;aspect=fixed;fillColor=#000000;" vertex="1" parent="1">
          <mxGeometry x="399" y="94" width="5" height="5" as="geometry" />
        </mxCell>
        <mxCell id="-KU_KeEN-nzoHM00rjck-58" value="" style="ellipse;whiteSpace=wrap;html=1;aspect=fixed;fillColor=#000000;" vertex="1" parent="1">
          <mxGeometry x="459" y="94" width="5" height="5" as="geometry" />
        </mxCell>
        <mxCell id="-KU_KeEN-nzoHM00rjck-59" value="" style="ellipse;whiteSpace=wrap;html=1;aspect=fixed;fillColor=#000000;" vertex="1" parent="1">
          <mxGeometry x="519" y="94" width="5" height="5" as="geometry" />
        </mxCell>
        <mxCell id="-KU_KeEN-nzoHM00rjck-60" value="" style="ellipse;whiteSpace=wrap;html=1;aspect=fixed;fillColor=#000000;" vertex="1" parent="1">
          <mxGeometry x="399" y="154" width="5" height="5" as="geometry" />
        </mxCell>
        <mxCell id="-KU_KeEN-nzoHM00rjck-61" value="" style="ellipse;whiteSpace=wrap;html=1;aspect=fixed;fillColor=#000000;" vertex="1" parent="1">
          <mxGeometry x="459" y="154" width="5" height="5" as="geometry" />
        </mxCell>
        <mxCell id="-KU_KeEN-nzoHM00rjck-62" value="" style="ellipse;whiteSpace=wrap;html=1;aspect=fixed;fillColor=#000000;" vertex="1" parent="1">
          <mxGeometry x="519" y="154" width="5" height="5" as="geometry" />
        </mxCell>
        <mxCell id="-KU_KeEN-nzoHM00rjck-63" value="" style="ellipse;whiteSpace=wrap;html=1;aspect=fixed;fillColor=#000000;" vertex="1" parent="1">
          <mxGeometry x="400" y="214" width="5" height="5" as="geometry" />
        </mxCell>
        <mxCell id="-KU_KeEN-nzoHM00rjck-64" value="" style="ellipse;whiteSpace=wrap;html=1;aspect=fixed;fillColor=#000000;" vertex="1" parent="1">
          <mxGeometry x="460" y="214" width="5" height="5" as="geometry" />
        </mxCell>
        <mxCell id="-KU_KeEN-nzoHM00rjck-65" value="" style="ellipse;whiteSpace=wrap;html=1;aspect=fixed;fillColor=#000000;" vertex="1" parent="1">
          <mxGeometry x="520" y="214" width="5" height="5" as="geometry" />
        </mxCell>
        <mxCell id="-KU_KeEN-nzoHM00rjck-66" value="" style="ellipse;whiteSpace=wrap;html=1;aspect=fixed;fillColor=#000000;" vertex="1" parent="1">
          <mxGeometry x="400" y="274" width="5" height="5" as="geometry" />
        </mxCell>
        <mxCell id="-KU_KeEN-nzoHM00rjck-67" value="" style="ellipse;whiteSpace=wrap;html=1;aspect=fixed;fillColor=#000000;" vertex="1" parent="1">
          <mxGeometry x="460" y="274" width="5" height="5" as="geometry" />
        </mxCell>
        <mxCell id="-KU_KeEN-nzoHM00rjck-68" value="" style="ellipse;whiteSpace=wrap;html=1;aspect=fixed;fillColor=#000000;" vertex="1" parent="1">
          <mxGeometry x="520" y="274" width="5" height="5" as="geometry" />
        </mxCell>
        <mxCell id="-KU_KeEN-nzoHM00rjck-73" value="" style="ellipse;whiteSpace=wrap;html=1;aspect=fixed;fillColor=#000000;" vertex="1" parent="1">
          <mxGeometry x="306" y="73" width="5" height="5" as="geometry" />
        </mxCell>
        <mxCell id="-KU_KeEN-nzoHM00rjck-74" value="" style="ellipse;whiteSpace=wrap;html=1;aspect=fixed;fillColor=#000000;" vertex="1" parent="1">
          <mxGeometry x="367" y="253" width="5" height="5" as="geometry" />
        </mxCell>
        <mxCell id="-KU_KeEN-nzoHM00rjck-75" value="" style="ellipse;whiteSpace=wrap;html=1;aspect=fixed;fillColor=#000000;" vertex="1" parent="1">
          <mxGeometry x="428" y="194" width="5" height="5" as="geometry" />
        </mxCell>
        <mxCell id="-KU_KeEN-nzoHM00rjck-76" value="" style="ellipse;whiteSpace=wrap;html=1;aspect=fixed;fillColor=#000000;" vertex="1" parent="1">
          <mxGeometry x="489" y="134" width="5" height="5" as="geometry" />
        </mxCell>
        <mxCell id="-KU_KeEN-nzoHM00rjck-77" value="" style="ellipse;whiteSpace=wrap;html=1;aspect=fixed;fillColor=#000000;" vertex="1" parent="1">
          <mxGeometry x="490" y="254" width="5" height="5" as="geometry" />
        </mxCell>
        <mxCell id="-KU_KeEN-nzoHM00rjck-78" value="" style="ellipse;whiteSpace=wrap;html=1;aspect=fixed;fillColor=#000000;" vertex="1" parent="1">
          <mxGeometry x="428" y="253" width="5" height="5" as="geometry" />
        </mxCell>
        <mxCell id="-KU_KeEN-nzoHM00rjck-79" value="" style="ellipse;whiteSpace=wrap;html=1;aspect=fixed;fillColor=#000000;" vertex="1" parent="1">
          <mxGeometry x="307" y="254" width="5" height="5" as="geometry" />
        </mxCell>
        <mxCell id="-KU_KeEN-nzoHM00rjck-80" value="" style="ellipse;whiteSpace=wrap;html=1;aspect=fixed;fillColor=#000000;" vertex="1" parent="1">
          <mxGeometry x="490" y="194" width="5" height="5" as="geometry" />
        </mxCell>
        <mxCell id="-KU_KeEN-nzoHM00rjck-81" value="" style="ellipse;whiteSpace=wrap;html=1;aspect=fixed;fillColor=#000000;" vertex="1" parent="1">
          <mxGeometry x="368" y="193" width="5" height="5" as="geometry" />
        </mxCell>
        <mxCell id="-KU_KeEN-nzoHM00rjck-82" value="" style="ellipse;whiteSpace=wrap;html=1;aspect=fixed;fillColor=#000000;" vertex="1" parent="1">
          <mxGeometry x="428" y="134" width="5" height="5" as="geometry" />
        </mxCell>
        <mxCell id="-KU_KeEN-nzoHM00rjck-83" value="" style="ellipse;whiteSpace=wrap;html=1;aspect=fixed;fillColor=#000000;" vertex="1" parent="1">
          <mxGeometry x="490" y="73" width="5" height="5" as="geometry" />
        </mxCell>
        <mxCell id="-KU_KeEN-nzoHM00rjck-84" value="" style="ellipse;whiteSpace=wrap;html=1;aspect=fixed;fillColor=#000000;" vertex="1" parent="1">
          <mxGeometry x="427" y="73" width="5" height="5" as="geometry" />
        </mxCell>
        <mxCell id="-KU_KeEN-nzoHM00rjck-85" value="" style="ellipse;whiteSpace=wrap;html=1;aspect=fixed;fillColor=#000000;" vertex="1" parent="1">
          <mxGeometry x="367" y="134" width="5" height="5" as="geometry" />
        </mxCell>
        <mxCell id="-KU_KeEN-nzoHM00rjck-86" value="" style="ellipse;whiteSpace=wrap;html=1;aspect=fixed;fillColor=#000000;" vertex="1" parent="1">
          <mxGeometry x="306" y="193" width="5" height="5" as="geometry" />
        </mxCell>
        <mxCell id="-KU_KeEN-nzoHM00rjck-87" value="" style="ellipse;whiteSpace=wrap;html=1;aspect=fixed;fillColor=#000000;" vertex="1" parent="1">
          <mxGeometry x="306" y="134" width="5" height="5" as="geometry" />
        </mxCell>
        <mxCell id="-KU_KeEN-nzoHM00rjck-88" value="" style="ellipse;whiteSpace=wrap;html=1;aspect=fixed;fillColor=#000000;" vertex="1" parent="1">
          <mxGeometry x="367" y="74" width="5" height="5" as="geometry" />
        </mxCell>
        <mxCell id="-KU_KeEN-nzoHM00rjck-89" value="x&lt;sub&gt;0&lt;/sub&gt;" style="text;strokeColor=none;align=center;fillColor=none;html=1;verticalAlign=middle;whiteSpace=wrap;rounded=0;" vertex="1" parent="1">
          <mxGeometry x="269.25" y="5" width="40.5" height="20" as="geometry" />
        </mxCell>
        <mxCell id="-KU_KeEN-nzoHM00rjck-90" value="x&lt;sub&gt;1&lt;/sub&gt;" style="text;strokeColor=none;align=center;fillColor=none;html=1;verticalAlign=middle;whiteSpace=wrap;rounded=0;" vertex="1" parent="1">
          <mxGeometry x="330.25" y="5" width="40.5" height="20" as="geometry" />
        </mxCell>
        <mxCell id="-KU_KeEN-nzoHM00rjck-91" value="x&lt;sub&gt;2&lt;/sub&gt;" style="text;strokeColor=none;align=center;fillColor=none;html=1;verticalAlign=middle;whiteSpace=wrap;rounded=0;" vertex="1" parent="1">
          <mxGeometry x="390.25" y="5" width="40.5" height="20" as="geometry" />
        </mxCell>
        <mxCell id="-KU_KeEN-nzoHM00rjck-92" value="x&lt;sub&gt;3&lt;/sub&gt;" style="text;strokeColor=none;align=center;fillColor=none;html=1;verticalAlign=middle;whiteSpace=wrap;rounded=0;" vertex="1" parent="1">
          <mxGeometry x="451" y="5" width="40.5" height="20" as="geometry" />
        </mxCell>
        <mxCell id="-KU_KeEN-nzoHM00rjck-93" value="y&lt;sub&gt;3&lt;/sub&gt;" style="text;strokeColor=none;align=center;fillColor=none;html=1;verticalAlign=middle;whiteSpace=wrap;rounded=0;" vertex="1" parent="1">
          <mxGeometry x="560" y="86" width="40.5" height="20" as="geometry" />
        </mxCell>
        <mxCell id="-KU_KeEN-nzoHM00rjck-94" value="y&lt;sub&gt;2&lt;/sub&gt;" style="text;strokeColor=none;align=center;fillColor=none;html=1;verticalAlign=middle;whiteSpace=wrap;rounded=0;" vertex="1" parent="1">
          <mxGeometry x="560" y="146" width="40.5" height="20" as="geometry" />
        </mxCell>
        <mxCell id="-KU_KeEN-nzoHM00rjck-95" value="y&lt;sub&gt;1&lt;/sub&gt;" style="text;strokeColor=none;align=center;fillColor=none;html=1;verticalAlign=middle;whiteSpace=wrap;rounded=0;" vertex="1" parent="1">
          <mxGeometry x="560" y="206" width="40.5" height="20" as="geometry" />
        </mxCell>
        <mxCell id="-KU_KeEN-nzoHM00rjck-96" value="y&lt;sub&gt;0&lt;/sub&gt;" style="text;strokeColor=none;align=center;fillColor=none;html=1;verticalAlign=middle;whiteSpace=wrap;rounded=0;" vertex="1" parent="1">
          <mxGeometry x="560" y="266" width="40.5" height="20" as="geometry" />
        </mxCell>
        <mxCell id="-KU_KeEN-nzoHM00rjck-98" value="" style="endArrow=none;html=1;rounded=0;" edge="1" parent="1">
          <mxGeometry width="50" height="50" relative="1" as="geometry">
            <mxPoint x="110" y="30.5" as="sourcePoint" />
            <mxPoint x="160" y="30.5" as="targetPoint" />
          </mxGeometry>
        </mxCell>
        <mxCell id="-KU_KeEN-nzoHM00rjck-99" value="" style="endArrow=none;html=1;rounded=0;" edge="1" parent="1">
          <mxGeometry width="50" height="50" relative="1" as="geometry">
            <mxPoint x="110" y="49.5" as="sourcePoint" />
            <mxPoint x="160" y="49.5" as="targetPoint" />
          </mxGeometry>
        </mxCell>
        <mxCell id="-KU_KeEN-nzoHM00rjck-100" value="s&lt;sub&gt;0&lt;/sub&gt;" style="text;strokeColor=none;align=center;fillColor=none;html=1;verticalAlign=middle;whiteSpace=wrap;rounded=0;" vertex="1" parent="1">
          <mxGeometry x="80" y="19.5" width="30.5" height="20" as="geometry" />
        </mxCell>
        <mxCell id="-KU_KeEN-nzoHM00rjck-101" value="s&lt;sub&gt;1&lt;/sub&gt;" style="text;strokeColor=none;align=center;fillColor=none;html=1;verticalAlign=middle;whiteSpace=wrap;rounded=0;" vertex="1" parent="1">
          <mxGeometry x="80" y="39.5" width="30.5" height="20" as="geometry" />
        </mxCell>
        <mxCell id="-KU_KeEN-nzoHM00rjck-102" value="" style="endArrow=none;html=1;rounded=0;" edge="1" parent="1">
          <mxGeometry width="50" height="50" relative="1" as="geometry">
            <mxPoint x="160" y="19" as="sourcePoint" />
            <mxPoint x="160" y="19" as="targetPoint" />
            <Array as="points">
              <mxPoint x="210" y="19" />
              <mxPoint x="210" y="59" />
              <mxPoint x="200" y="59" />
              <mxPoint x="200" y="69" />
              <mxPoint x="210" y="69" />
              <mxPoint x="210" y="279" />
              <mxPoint x="160" y="279" />
              <mxPoint x="160" y="69" />
              <mxPoint x="170" y="69" />
              <mxPoint x="170" y="59" />
              <mxPoint x="160" y="59" />
            </Array>
          </mxGeometry>
        </mxCell>
        <mxCell id="-KU_KeEN-nzoHM00rjck-103" value="a&lt;sub&gt;3&lt;/sub&gt;" style="text;strokeColor=none;align=center;fillColor=none;html=1;verticalAlign=middle;whiteSpace=wrap;rounded=0;" vertex="1" parent="1">
          <mxGeometry x="180" y="74" width="30.5" height="20" as="geometry" />
        </mxCell>
        <mxCell id="-KU_KeEN-nzoHM00rjck-104" value="a&lt;sub&gt;2&lt;/sub&gt;" style="text;strokeColor=none;align=center;fillColor=none;html=1;verticalAlign=middle;whiteSpace=wrap;rounded=0;" vertex="1" parent="1">
          <mxGeometry x="180" y="134" width="30.5" height="20" as="geometry" />
        </mxCell>
        <mxCell id="-KU_KeEN-nzoHM00rjck-105" value="a&lt;sub&gt;1&lt;/sub&gt;" style="text;strokeColor=none;align=center;fillColor=none;html=1;verticalAlign=middle;whiteSpace=wrap;rounded=0;" vertex="1" parent="1">
          <mxGeometry x="180" y="193" width="30.5" height="20" as="geometry" />
        </mxCell>
        <mxCell id="-KU_KeEN-nzoHM00rjck-106" value="a&lt;sub&gt;0&lt;/sub&gt;" style="text;strokeColor=none;align=center;fillColor=none;html=1;verticalAlign=middle;whiteSpace=wrap;rounded=0;" vertex="1" parent="1">
          <mxGeometry x="180" y="253" width="30.5" height="20" as="geometry" />
        </mxCell>
      </root>
    </mxGraphModel>
  </diagram>
</mxfile>
